<svg xmlns="http://www.w3.org/2000/svg" width="884" height="498" viewBox="0 0 884 498" version="1.1">
	<path d="M 569.500 27.658 C 559.317 29.276, 547.789 33.607, 518 47.007 C 499.575 55.296, 483.377 63.193, 482.005 64.556 C 479.651 66.896, 479.596 67.190, 481.028 69.768 C 483.122 73.536, 490.839 76.198, 497.500 75.450 C 501.090 75.047, 512.087 70.430, 536.500 59.075 C 555.200 50.377, 571.842 42.942, 573.482 42.553 C 578.966 41.252, 594.868 41.820, 600.741 43.527 C 606.451 45.187, 648.162 61.639, 699.500 82.481 C 702.488 83.694, 702.703 84.366, 752.293 247.099 C 779.679 336.970, 802.066 411.063, 802.043 411.750 C 801.977 413.660, 799.358 413.247, 795.230 410.677 C 791.384 408.281, 779.824 402.014, 765.047 394.313 C 760.398 391.890, 756.123 389.549, 755.547 389.109 C 754.971 388.670, 748.650 385.258, 741.500 381.526 C 729.752 375.394, 723.375 371.962, 714.499 366.994 C 690.949 353.812, 674.690 346.767, 659 342.944 C 651.536 341.126, 621.056 341.058, 614.983 342.846 C 612.517 343.572, 608.025 344.902, 605 345.802 C 596.420 348.354, 586.581 353.817, 565.747 367.596 C 555.161 374.597, 539.300 385.049, 530.500 390.823 C 521.700 396.596, 510.147 404.191, 504.826 407.699 C 498.640 411.777, 494.404 415.345, 493.076 417.596 C 486.452 428.822, 496.945 441.975, 512.500 441.944 C 520.548 441.928, 523.182 440.565, 545 425.123 C 549.675 421.814, 557.100 416.639, 561.500 413.623 C 568.844 408.588, 573.399 405.438, 593.500 391.495 C 619.632 373.368, 619.721 373.320, 631.500 371.385 C 637.410 370.414, 641.328 370.331, 646.500 371.067 C 659.053 372.854, 664.660 375.035, 683.250 385.362 C 685.862 386.813, 689.913 389.057, 692.250 390.350 C 694.587 391.642, 707.750 399.003, 721.500 406.708 C 735.250 414.414, 748.975 422.048, 752 423.674 C 755.025 425.299, 761.100 428.672, 765.500 431.168 C 775.007 436.561, 780.296 439.512, 793 446.508 C 798.225 449.386, 805.200 453.228, 808.500 455.045 C 811.800 456.863, 815.850 459.158, 817.500 460.145 C 827.502 466.132, 835.137 469, 841.072 469 C 849.824 469, 855.162 465.941, 857.854 459.382 C 859.018 456.545, 858.734 455.060, 854.697 442.882 C 845.705 415.753, 731.156 81.408, 729.959 78.794 C 728.469 75.542, 726.262 74.465, 701 64.665 C 690.275 60.504, 675.650 54.808, 668.500 52.006 C 607.865 28.248, 606.886 27.955, 586.500 27.496 C 578.800 27.323, 571.150 27.395, 569.500 27.658 M 183.072 73.547 C 169.229 76.562, 155.509 85.348, 151.917 93.500 C 150.145 97.521, 29.296 417.542, 27.148 423.899 C 26.517 425.769, 26 430.105, 26 433.534 C 26 439.803, 28.571 450, 30.152 450 C 30.618 450, 31 450.640, 31 451.422 C 31 453.169, 39.695 460.896, 44.201 463.153 C 46.015 464.061, 49.750 465.621, 52.500 466.617 C 57.247 468.338, 66.797 468.445, 241.488 468.736 L 425.476 469.042 430.280 466.975 C 439.172 463.149, 443.423 457.599, 443.142 450.178 C 442.880 443.244, 439.445 438.753, 431.500 434.956 C 427.609 433.096, 422.717 433.043, 252.331 433.022 C 90.477 433.002, 76.941 432.873, 74.249 431.328 C 72.647 430.409, 70.745 428.320, 70.022 426.688 C 68.804 423.936, 69.245 422.141, 76.063 402.110 C 80.109 390.224, 105.518 315.720, 132.528 236.545 L 181.637 92.589 186.068 90.323 L 190.500 88.056 314.282 88.028 C 446.445 87.998, 441.930 88.162, 446.330 83.220 C 448.768 80.483, 448.132 77.171, 444.677 74.600 L 441.854 72.500 315.677 72.324 C 210.773 72.177, 188.416 72.383, 183.072 73.547 M 602.249 141.602 C 602.556 143.196, 605.384 159.800, 608.534 178.500 C 611.684 197.200, 614.347 212.606, 614.451 212.737 C 614.555 212.867, 617.758 212.065, 621.570 210.955 C 637.320 206.367, 658.046 206.509, 669.849 211.286 C 674.652 213.229, 675.502 214.052, 678.172 219.340 C 680.994 224.931, 681.084 225.489, 679.960 230.365 C 678.579 236.347, 677.314 238.564, 671.086 245.908 C 663.600 254.736, 649.826 266.259, 637.525 273.985 C 631.186 277.965, 626.010 281.510, 626.022 281.861 C 626.106 284.266, 629.862 305.195, 630.285 305.618 C 630.576 305.909, 636.368 306.551, 643.157 307.046 C 656.366 308.009, 665.073 309.209, 671.500 310.955 C 683.719 314.274, 690.047 316.220, 694.500 318.030 C 696.150 318.700, 698.400 319.593, 699.500 320.014 C 700.600 320.435, 704.833 322.404, 708.907 324.390 C 718.166 328.902, 723.939 329.268, 726.409 325.498 C 727.989 323.088, 727.312 320.158, 708.024 245.845 C 697.011 203.412, 688.001 168.201, 688.001 167.597 C 688.002 166.834, 683.235 166.599, 672.327 166.825 C 647.127 167.347, 636.576 163.884, 615.820 148.276 C 611.595 145.099, 606.688 141.646, 604.915 140.602 L 601.691 138.704 602.249 141.602 M 258.500 200.171 C 249.294 201.217, 246.175 203.114, 249.500 205.644 C 250.971 206.764, 252.823 207.006, 256.500 206.559 C 259.250 206.225, 267.800 205.709, 275.500 205.413 C 283.200 205.117, 290.512 204.670, 291.750 204.418 C 294.366 203.888, 294.832 200.533, 292.418 199.607 C 290.140 198.733, 267.901 199.102, 258.500 200.171 M 301.222 201.232 C 299.111 203.776, 302.026 205.019, 313.680 206.546 C 319.631 207.326, 326.750 208.443, 329.500 209.028 C 339.819 211.223, 343.478 211.334, 345.001 209.499 C 347.215 206.831, 344.485 205.511, 331.701 203.068 C 315.944 200.057, 302.852 199.268, 301.222 201.232 M 222.500 206.888 C 200.904 212.821, 195.289 216.258, 202.631 219.050 C 204.508 219.763, 207.871 219.070, 217.284 216.030 C 224.003 213.859, 231.750 211.550, 234.500 210.898 C 240.815 209.400, 243 208.288, 243 206.572 C 243 203.140, 235.736 203.252, 222.500 206.888 M 369.174 207.128 C 357.158 208.586, 350 213.865, 350 221.266 C 350 224.640, 350.663 225.921, 354.250 229.483 C 360.959 236.145, 367.923 238.351, 382.500 238.433 C 395.794 238.507, 401.453 236.852, 406.493 231.413 C 410.614 226.966, 409.537 219.827, 404.046 215.196 C 400.829 212.484, 390.459 208.046, 386.068 207.503 C 377.192 206.406, 375.437 206.367, 369.174 207.128 M 365.963 214.250 C 357.297 218.621, 358.196 225.346, 368.108 230.306 C 372.743 232.625, 375.003 233.111, 381.146 233.111 C 392.472 233.111, 399 229.680, 399 223.727 C 399 214.532, 377.584 208.389, 365.963 214.250 M 183.437 222.323 C 173.185 228.250, 160 238.198, 160 240.006 C 160 241.324, 165.694 242.892, 168.182 242.258 C 169.457 241.933, 174.373 238.929, 179.106 235.583 C 183.840 232.238, 189.834 228.255, 192.426 226.732 C 198.576 223.122, 198.408 220.613, 191.991 220.237 C 188.744 220.046, 186.374 220.624, 183.437 222.323 M 323.323 235.696 C 322.125 235.929, 320.589 236.791, 319.909 237.610 C 317.600 240.391, 321.224 242.443, 329.427 243 L 336.790 243.500 321.843 252.810 L 306.897 262.121 303.198 260.843 C 297.722 258.952, 281.610 259.164, 275 261.215 C 264.452 264.487, 258.203 270.071, 257.265 277.059 C 255.727 288.526, 268.538 297.678, 287.625 298.748 C 314.129 300.233, 331.649 284.620, 319.577 270.274 L 317.230 267.485 332.365 257.875 L 347.500 248.264 348.508 252.219 C 349.062 254.394, 350.386 256.809, 351.449 257.586 C 353.895 259.375, 358.068 259.402, 360.470 257.646 C 362.196 256.384, 362.235 255.755, 361.054 248.396 C 359.503 238.729, 358.887 237.505, 354.872 236.105 C 351.889 235.065, 328.145 234.758, 323.323 235.696 M 407.250 240.662 C 404.960 241.586, 405.956 244.027, 410.563 248.786 C 413.073 251.379, 416.949 256.294, 419.176 259.710 C 422.086 264.172, 424.139 266.221, 426.469 266.990 C 430.122 268.195, 435 266.921, 435 264.761 C 435 262.549, 427.879 252.776, 421.512 246.250 C 416.276 240.883, 414.925 240.011, 411.957 240.079 C 410.056 240.122, 407.938 240.385, 407.250 240.662 M 151.985 247.282 C 147.814 250.635, 137 268.470, 137 271.996 C 137 273.858, 141.704 275.278, 145.508 274.564 C 148.887 273.930, 149.422 273.324, 152.449 266.689 C 154.252 262.735, 157.364 257.359, 159.364 254.741 C 163.336 249.543, 163.843 247.537, 161.418 246.607 C 158.813 245.607, 153.604 245.980, 151.985 247.282 M 278.408 267.552 C 272.526 269.722, 268.600 274.159, 268.600 278.636 C 268.600 289.278, 290.661 295.805, 303.864 289.069 C 314.635 283.574, 314.541 274.428, 303.655 268.793 C 298.248 265.993, 284.468 265.316, 278.408 267.552 M 280.388 271.581 C 270.710 276.356, 275.039 285.875, 287.650 287.548 C 302.526 289.521, 311.696 277.354, 299.643 271.635 C 295.235 269.543, 284.578 269.514, 280.388 271.581 M 428.582 272.316 C 426.941 273.516, 426.893 274.157, 428.033 279.566 C 428.722 282.830, 429.272 288.773, 429.257 292.773 C 429.225 301.134, 430.655 303, 437.100 303 C 442.644 303, 443.360 301.434, 442.709 290.734 C 441.923 277.821, 440.682 274.183, 436.463 272.420 C 432.254 270.661, 430.870 270.643, 428.582 272.316 M 139.500 279.731 C 138.400 279.992, 136.661 280.948, 135.635 281.853 C 133.985 283.310, 133.821 284.664, 134.212 293.561 C 134.528 300.739, 135.206 304.752, 136.578 307.561 C 138.350 311.193, 138.855 311.523, 143.053 311.797 C 146.541 312.024, 148.015 311.640, 149.359 310.156 C 150.993 308.350, 151.007 307.815, 149.556 302.215 C 148.700 298.913, 148 293.069, 148 289.228 C 148 284.842, 147.535 281.873, 146.750 281.245 C 144.981 279.830, 141.841 279.174, 139.500 279.731 M 428.208 307.850 C 427.498 308.301, 425.643 311.332, 424.086 314.585 C 422.530 317.838, 418.971 323.609, 416.179 327.410 C 410.609 334.988, 410.540 337.114, 415.800 339.114 C 420.697 340.976, 424.172 339.454, 428.930 333.361 C 434.032 326.829, 439.992 315.489, 439.997 312.307 C 440.003 308.276, 432.191 305.323, 428.208 307.850 M 147 317.306 C 141.879 319.053, 141.955 321.781, 147.334 329.319 C 152.778 336.949, 164.105 347.737, 167.590 348.612 C 171.111 349.496, 175.978 347.918, 177.691 345.339 C 179.045 343.300, 178.690 342.767, 171.112 335.485 C 166.706 331.251, 161.616 325.613, 159.801 322.956 C 156.900 318.711, 153.374 315.882, 151.203 316.056 C 150.816 316.087, 148.925 316.650, 147 317.306 M 403.086 341.671 C 402.308 342.004, 398.150 344.674, 393.846 347.605 C 389.542 350.535, 382.222 354.746, 377.579 356.962 C 368.159 361.458, 366.383 363.827, 369.840 367.284 C 373.402 370.847, 379.272 370.049, 389.563 364.606 C 403.261 357.359, 414 349.444, 414 346.594 C 414 345.302, 413.365 343.718, 412.589 343.074 C 410.908 341.679, 405.079 340.818, 403.086 341.671 M 182.465 349.952 C 181.346 350.405, 179.847 351.480, 179.133 352.340 C 176.051 356.053, 179.927 359.104, 198.500 367.580 C 217.627 376.310, 225.990 377.708, 229.458 372.756 C 231.891 369.283, 229.534 367.192, 218.470 363.009 C 212.987 360.935, 203.815 356.935, 198.089 354.119 C 187.457 348.892, 186.023 348.509, 182.465 349.952 M 344.500 368.552 C 339.550 369.886, 329.425 371.862, 322 372.943 C 310.791 374.575, 308.203 375.274, 306.750 377.065 C 304.495 379.843, 304.544 380.497, 307.189 382.961 C 308.690 384.360, 310.732 385, 313.695 385 C 324.142 385, 357.169 378.429, 361.725 375.445 C 366.182 372.524, 363.329 367.274, 356.874 366.520 C 355.018 366.304, 349.450 367.218, 344.500 368.552 M 238.416 373.493 C 235.326 376.583, 236.371 379.317, 241.242 380.894 C 247.809 383.020, 263.878 385.067, 278.500 385.641 C 292.905 386.206, 293.589 386.144, 295.750 384.076 C 298.480 381.463, 298.518 380.861, 296.140 377.924 C 294.422 375.803, 293.192 375.566, 280.114 374.836 C 272.323 374.401, 261.690 373.360, 256.485 372.523 C 243.478 370.430, 241.366 370.543, 238.416 373.493" stroke="none" fill="black" fill-rule="evenodd"/>
</svg>